<svg xmlns="http://www.w3.org/2000/svg" xmlns:xlink="http://www.w3.org/1999/xlink" style="margin:auto;background:#ffffff;display:block;z-index:1;position:relative" width="2000" height="613" preserveAspectRatio="xMidYMid" viewBox="0 0 2000 613">
<g transform="translate(1000,306.5) scale(1,1) translate(-1000,-306.5)"><g transform="translate(1238.2887343808684,-244.1527754103888) scale(100)" opacity="0.4">
  <path d="M5.82 0 C5.82 1.3800000000000001 6.042036995387832 1.8948849427774748 5.352036995387833 3.0900000000000003 S4.105115057222526 4.350267850025433 2.9100000000000006 5.040267850025433 S1.3800000000000006 6.1800000000000015 3.784158609365322e-16 6.1800000000000015 S-1.7148849427774733 5.730267850025433 -2.909999999999999 5.040267850025433 S-4.6620369953878305 4.285115057222528 -5.352036995387831 3.090000000000003 S-5.82 1.3800000000000008 -5.82 7.127444371037596e-16 S-6.042036995387833 -1.8948849427774732 -5.3520369953878335 -3.089999999999999 S-4.105115057222529 -4.350267850025432 -2.910000000000003 -5.040267850025432 S-1.3800000000000012 -6.1800000000000015 -1.1352475828095966e-15 -6.1800000000000015 S1.7148849427774702 -5.730267850025435 2.909999999999996 -5.040267850025436 S4.6620369953878305 -4.285115057222528 5.352036995387831 -3.0900000000000034 S5.82 -1.3800000000000014 5.82 -1.4254888742075192e-15" fill="#ff00ff" stroke-width="0">
    <animateTransform attributeName="transform" type="rotate" dur="33.333333333333336s" repeatCount="indefinite" values="0;60"></animateTransform>
  </path>
</g><g transform="translate(1285.946481257042,-354.2833304924666) scale(100)" opacity="0.4">
  <path d="M6.984000000000001 0 C6.984000000000001 1.6560000000000001 7.250444394465399 2.2738619313329695 6.422444394465399 3.708 S4.926138068667032 5.22032142003052 3.4920000000000013 6.04832142003052 S1.6560000000000006 7.416000000000001 4.540990331238386e-16 7.416000000000001 S-2.0578619313329685 6.8763214200305205 -3.491999999999999 6.048321420030521 S-5.5944443944653965 5.142138068667034 -6.422444394465397 3.7080000000000033 S-6.984000000000001 1.656000000000001 -6.984000000000001 8.552933245245116e-16 S-7.250444394465399 -2.2738619313329673 -6.4224443944653995 -3.7079999999999984 S-4.926138068667034 -5.220321420030518 -3.4920000000000035 -6.048321420030519 S-1.6560000000000015 -7.416000000000001 -1.3622970993715159e-15 -7.416000000000001 S2.057861931332965 -6.876321420030521 3.491999999999996 -6.048321420030523 S5.594444394465395 -5.142138068667034 6.422444394465396 -3.7080000000000037 S6.984000000000001 -1.656000000000002 6.984000000000001 -1.7105866490490231e-15" fill="#00c6ff" stroke-width="0">
    <animateTransform attributeName="transform" type="rotate" dur="16.666666666666668s" repeatCount="indefinite" values="0;60"></animateTransform>
  </path>
</g><g transform="translate(1400.325073759859,-618.5966626894531) scale(100)" opacity="0.4">
  <path d="M9.777600000000001 0 C9.777600000000001 2.3184000000000005 10.15062215225156 3.183406703866157 8.991422152251559 5.1912 S6.896593296133844 7.308449988042728 4.888800000000002 8.467649988042728 S2.318400000000001 10.382400000000002 6.357386463733741e-16 10.382400000000002 S-2.8810067038661558 9.626849988042729 -4.888799999999999 8.467649988042728 S-7.832222152251554 7.198993296133848 -8.991422152251555 5.191200000000005 S-9.777600000000001 2.318400000000002 -9.777600000000001 1.1974106543343163e-15 S-10.15062215225156 -3.1834067038661553 -8.991422152251559 -5.1911999999999985 S-6.896593296133847 -7.308449988042725 -4.888800000000005 -8.467649988042727 S-2.3184000000000022 -10.382400000000002 -1.907215939120122e-15 -10.382400000000002 S2.8810067038661504 -9.62684998804273 4.8887999999999945 -8.467649988042732 S7.832222152251554 -7.198993296133848 8.991422152251555 -5.191200000000006 S9.777600000000001 -2.3184000000000027 9.777600000000001 -2.3948213086686326e-15" fill="#00ffff" stroke-width="0">
    <animateTransform attributeName="transform" type="rotate" dur="11.11111111111111s" repeatCount="indefinite" values="0;60"></animateTransform>
  </path>
</g></g>
</svg>